<svg width="105" height="44" viewBox="0 0 105 44" fill="none" xmlns="http://www.w3.org/2000/svg">
<path d="M9.63068 29H1.89631V7.18182H9.6946C11.8892 7.18182 13.7784 7.61861 15.3622 8.49219C16.946 9.35866 18.1641 10.6051 19.0163 12.2315C19.8757 13.858 20.3054 15.804 20.3054 18.0696C20.3054 20.3423 19.8757 22.2955 19.0163 23.929C18.1641 25.5625 16.9389 26.8161 15.3409 27.6896C13.75 28.5632 11.8466 29 9.63068 29ZM6.50923 25.0476H9.43892C10.8026 25.0476 11.9496 24.8061 12.88 24.3232C13.8175 23.8331 14.5206 23.0767 14.9893 22.054C15.4652 21.0241 15.7031 19.696 15.7031 18.0696C15.7031 16.4574 15.4652 15.1399 14.9893 14.1172C14.5206 13.0945 13.821 12.3416 12.8906 11.8587C11.9602 11.3757 10.8132 11.1342 9.44957 11.1342H6.50923V25.0476ZM21.9225 29V7.18182H30.5304C32.1782 7.18182 33.5844 7.47656 34.7492 8.06605C35.9211 8.64844 36.8124 9.47585 37.4232 10.5483C38.0411 11.6136 38.35 12.8672 38.35 14.3089C38.35 15.7578 38.0375 17.0043 37.4125 18.0483C36.7875 19.0852 35.882 19.8807 34.6959 20.4347C33.5169 20.9886 32.0894 21.2656 30.4132 21.2656H24.6498V17.5582H29.6675C30.5482 17.5582 31.2797 17.4375 31.8621 17.196C32.4445 16.9545 32.8777 16.5923 33.1618 16.1094C33.453 15.6264 33.5986 15.0263 33.5986 14.3089C33.5986 13.5845 33.453 12.9737 33.1618 12.4766C32.8777 11.9794 32.4409 11.603 31.8515 11.3473C31.2691 11.0845 30.534 10.9531 29.6462 10.9531H26.5354V29H21.9225ZM33.7052 19.071L39.1277 29H34.0354L28.73 19.071H33.7052ZM39.81 29V7.18182H54.5117V10.9851H44.4229V16.1839H53.7553V19.9872H44.4229V25.1967H54.5543V29H39.81ZM60.1398 29H55.1966L62.7286 7.18182H68.6732L76.1945 29H71.2513L65.7861 12.1676H65.6156L60.1398 29ZM59.8308 20.424H71.507V24.0249H59.8308V20.424ZM77.0205 7.18182H82.7094L88.718 21.8409H88.9737L94.9822 7.18182H100.671V29H96.1967V14.799H96.0156L90.3693 28.8935H87.3224L81.6761 14.7457H81.495V29H77.0205V7.18182Z" fill="#282828"/>
<path d="M16.4943 41H12.8849V30.8182H16.5241C17.5483 30.8182 18.4299 31.022 19.169 31.4297C19.9081 31.834 20.4766 32.4157 20.8743 33.1747C21.2753 33.9337 21.4759 34.8419 21.4759 35.8991C21.4759 36.9598 21.2753 37.8712 20.8743 38.6335C20.4766 39.3958 19.9048 39.9808 19.1591 40.3885C18.4167 40.7962 17.5284 41 16.4943 41ZM15.0376 39.1555H16.4048C17.0412 39.1555 17.5765 39.0429 18.0107 38.8175C18.4482 38.5888 18.7763 38.2358 18.995 37.7585C19.2171 37.2779 19.3281 36.6581 19.3281 35.8991C19.3281 35.1468 19.2171 34.532 18.995 34.0547C18.7763 33.5774 18.4498 33.2261 18.0156 33.0007C17.5814 32.7753 17.0462 32.6626 16.4098 32.6626H15.0376V39.1555ZM36.207 35.9091C36.207 37.0194 35.9966 37.964 35.5756 38.7429C35.158 39.5218 34.5879 40.1167 33.8654 40.5277C33.1462 40.9354 32.3375 41.1392 31.4393 41.1392C30.5344 41.1392 29.7224 40.9337 29.0032 40.5227C28.284 40.1117 27.7155 39.5168 27.2979 38.7379C26.8803 37.959 26.6715 37.0161 26.6715 35.9091C26.6715 34.7988 26.8803 33.8542 27.2979 33.0753C27.7155 32.2964 28.284 31.7031 29.0032 31.2955C29.7224 30.8845 30.5344 30.679 31.4393 30.679C32.3375 30.679 33.1462 30.8845 33.8654 31.2955C34.5879 31.7031 35.158 32.2964 35.5756 33.0753C35.9966 33.8542 36.207 34.7988 36.207 35.9091ZM34.0245 35.9091C34.0245 35.1899 33.9168 34.5833 33.7013 34.0895C33.4892 33.5956 33.1893 33.2211 32.8015 32.9659C32.4137 32.7107 31.9596 32.5831 31.4393 32.5831C30.9189 32.5831 30.4648 32.7107 30.0771 32.9659C29.6893 33.2211 29.3877 33.5956 29.1722 34.0895C28.9601 34.5833 28.854 35.1899 28.854 35.9091C28.854 36.6283 28.9601 37.2348 29.1722 37.7287C29.3877 38.2225 29.6893 38.5971 30.0771 38.8523C30.4648 39.1075 30.9189 39.2351 31.4393 39.2351C31.9596 39.2351 32.4137 39.1075 32.8015 38.8523C33.1893 38.5971 33.4892 38.2225 33.7013 37.7287C33.9168 37.2348 34.0245 36.6283 34.0245 35.9091ZM50.9382 35.9091C50.9382 37.0194 50.7277 37.964 50.3068 38.7429C49.8892 39.5218 49.3191 40.1167 48.5966 40.5277C47.8774 40.9354 47.0686 41.1392 46.1704 41.1392C45.2656 41.1392 44.4536 40.9337 43.7344 40.5227C43.0151 40.1117 42.4467 39.5168 42.0291 38.7379C41.6115 37.959 41.4027 37.0161 41.4027 35.9091C41.4027 34.7988 41.6115 33.8542 42.0291 33.0753C42.4467 32.2964 43.0151 31.7031 43.7344 31.2955C44.4536 30.8845 45.2656 30.679 46.1704 30.679C47.0686 30.679 47.8774 30.8845 48.5966 31.2955C49.3191 31.7031 49.8892 32.2964 50.3068 33.0753C50.7277 33.8542 50.9382 34.7988 50.9382 35.9091ZM48.7557 35.9091C48.7557 35.1899 48.6479 34.5833 48.4325 34.0895C48.2204 33.5956 47.9204 33.2211 47.5327 32.9659C47.1449 32.7107 46.6908 32.5831 46.1704 32.5831C45.6501 32.5831 45.196 32.7107 44.8082 32.9659C44.4204 33.2211 44.1188 33.5956 43.9034 34.0895C43.6913 34.5833 43.5852 35.1899 43.5852 35.9091C43.5852 36.6283 43.6913 37.2348 43.9034 37.7287C44.1188 38.2225 44.4204 38.5971 44.8082 38.8523C45.196 39.1075 45.6501 39.2351 46.1704 39.2351C46.6908 39.2351 47.1449 39.1075 47.5327 38.8523C47.9204 38.5971 48.2204 38.2225 48.4325 37.7287C48.6479 37.2348 48.7557 36.6283 48.7557 35.9091ZM59.9222 41H56.3128V30.8182H59.952C60.9762 30.8182 61.8578 31.022 62.5969 31.4297C63.336 31.834 63.9045 32.4157 64.3022 33.1747C64.7032 33.9337 64.9037 34.8419 64.9037 35.8991C64.9037 36.9598 64.7032 37.8712 64.3022 38.6335C63.9045 39.3958 63.3327 39.9808 62.587 40.3885C61.8446 40.7962 60.9563 41 59.9222 41ZM58.4655 39.1555H59.8327C60.4691 39.1555 61.0044 39.0429 61.4385 38.8175C61.876 38.5888 62.2042 38.2358 62.4229 37.7585C62.645 37.2779 62.756 36.6581 62.756 35.8991C62.756 35.1468 62.645 34.532 62.4229 34.0547C62.2042 33.5774 61.8777 33.2261 61.4435 33.0007C61.0093 32.7753 60.4741 32.6626 59.8377 32.6626H58.4655V39.1555ZM70.2784 41V30.8182H72.4311V39.2251H76.7961V41H70.2784ZM82.0017 41V30.8182H88.8625V32.593H84.1544V35.0192H88.5096V36.794H84.1544V39.2251H88.8824V41H82.0017Z" fill="#282828"/>
</svg>
